<svg xmlns="http://www.w3.org/2000/svg" version="1.1" xmlns:xlink="http://www.w3.org/1999/xlink" xmlns:svgjs="http://svgjs.dev/svgjs" width="1500" height="1687" viewBox="0 0 1500 1687"><g transform="matrix(1,0,0,1,0.00011015625000254659,0)"><svg viewBox="0 0 320 360" data-background-color="#692729" preserveAspectRatio="xMidYMid meet" height="1687" width="1500" xmlns="http://www.w3.org/2000/svg" xmlns:xlink="http://www.w3.org/1999/xlink"><g id="tight-bounds" transform="matrix(1,0,0,1,0.000023499999997511622,0)"><svg viewBox="0 0 320 360" height="360" width="320"><g><svg></svg></g><g><svg viewBox="0 0 320 360" height="360" width="320"><g><path transform="translate(-74.99272,-51.79039) scale(4.65793,4.65793)" d="M20.6 59.9l0.8 1-0.4-1.3c-0.1-0.6-0.8 0.1-0.4 0.3M21.5 59.3c0.3 0.5 0.6 1 0.6 1.5 0 0.7 0.6 1 1.1 1.2-0.7-0.8-1.1-3-1.7-2.7M59.9 16.9c1.7 0 3.3-0.2 5.1 0.2 4.4 1.1 8.1 3.3 10.6 6.4l7 11.2c0.3 2.8 0.9 5.9 0.8 9.3 0.7 0 0.6-1 1.4-1.2-0.8 2-1.2 4.5-1.4 7.4-0.5-1.6 0-4 0.1-5.3-0.7 1.1-1.1 0.3-1.1-0.2 0.1-0.8-0.3-0.7-0.6-1-1.1-1-1.8-2.1-2.6-3.8 0.5-1.3 0.6-3.2-1-4.2-0.5-0.3-1.1-0.8-1.4-1.6-0.4-1.1-1.1-2.4-0.9-4.1 0.1-0.5-1.5 1.1-2.4 0.4-3.9-2.7-7.8-5.8-12.5-8.4-2.5 0-4.3-0.9-5.2-2-0.8-1-0.2-2.3 1-2.4 0.7 0 1.5-0.2 2.1 0.2 0.1-0.4 0.5-0.9 1-0.9M50 14.6l0.2 0.1c1 0.2 1.5 1.6 2.6 1.1 0 0.7 0.1 1.4-0.1 1.9-0.3 0.8-1.2 0.8-1.9 0.8-6.7-0.4-10.6 2.4-14.7 4.8-1.1 0.7-2.3 1.2-3.2 2.1-4.3 4-9 7.7-10.1 15.1l-0.9 8.2c-0.1 0.9-1.1 1.8-0.9 2.9l0.7 4.9c-0.7-0.7-1.1 0.2-0.9 0.6 0.1 0.3 0.5 1.3 1.1 0.4 0.8 1.5 1.6 4.4 2.7 5.7 3.4 4 7.8 7.6 11.4 11.2 0.9-0.2 1.6-0.2 1.8-0.8 0.3 0.6-0.3 1.2-0.8 1.3 1.6 1 3.4 1.9 5.8 2.1 3.1 0.2 6 0.7 8.7 1.4 1.4-0.4 2.8-0.6 4.3-0.7 0.5 0 0.8-0.8 1.4-1l0.1-1c0.6 0.9 0.5-0.3 0.1-0.9 0.7 0.6 0.9 1.1 1.2 1.5 0-0.3 0.8-1.4 0.8-0.1l0.2-1.3c0.3-0.2 0.4 1.1 0.7 0.2 0.3-0.9 0.9-0.2 1.5-0.5-0.2 0.4-0.1 1.2 0.6 0.7l0.8-0.7c0.5 1.2 1.3 0.7 1.7 0.5 4.4-2.8 8.8-6.1 13-9.4l-0.1 1.3 0.5-1.6c0.5 0.5 0.9 0.1 1.1-0.2 0.6-1 1.4-2 2.7-2.9-1.6 4.3-3.5 7.7-5.9 10.5l-1 1.2c0 0.7-0.2 1.6-1 1.7-0.4 0.1-1.2-0.2-1.8 0.4-0.3 0.4 0.7 1.2-0.1 0.6-0.7-0.5-1.4 0-2.2 0.2-0.6 0.2 0.4 0.8 0.6 1.2 0.2 0.4 0.4 0.8 0.3 1.3l-1.1-1.2c-1.3 0.7-2.1 2-3.2 3-0.5 0.4-0.3 1.1-0.3 1.7-0.7 0-1.5-0.2-1.9 0.2-0.3 0.4-0.2 1-0.2 1.6-1-0.1-1.1-1.6-2-1.3-0.9 0.2-1.9 0.3-2.7 0.8 0.6 1.2-1 0.5-0.8 0.7-1.5-0.9-2.8-1.6-4.4-1-3.4-1.1-7.6-0.6-10.7-0.2 0-0.5 0.1-1-0.1-1.1-0.2 0.5-0.8 0.3-0.7 0.3-1.9-1.3-3.8-2.1-5.8-3.2-1.8 0.2-3.5-0.7-4-1.2-1.4-1.3-3-0.6-4.3-0.9-2.8-0.7-3.8-3.6-4.1-5.6-0.2-1-1-1.4-1.3-1.3-1.3-4.2-3.3-8-4.9-11.9-0.4-1-0.3-2-0.3-3.1 0.5 0.2 1 0.1 0.9-0.6-0.5-3.3-1.7-5.8-3-8.2 0.7-3.4 0.8-7.4 2.4-10.4 1.4-2.7 4-4.1 5.8-6.4 0.6-0.8 0.6-1.9 1.2-2.6 2-2 4-4.1 6.2-5.9 1-0.8 2.2 0 3.7-0.3 0.5-1.8 2.5-3.4 4.4-2.9 0.8 0.2 2.4-1.9 2.9-2.1 0.8-0.3 0.4 0.8 0.4 1.5 1.9-1.5 4.5-2.3 6.9-3.2" fill="#f2cebe" fill-rule="nonzero" stroke="none" stroke-width="1" stroke-linecap="butt" stroke-linejoin="miter" stroke-miterlimit="10" stroke-dasharray="" stroke-dashoffset="0" font-family="none" font-weight="none" font-size="none" text-anchor="none" style="mix-blend-mode: normal" data-fill-palette-color="tertiary"></path></g><g transform="matrix(1,0,0,1,100.84893989786339,90)"><svg viewBox="0 0 118.30212020427322 180" height="180" width="118.30212020427322"><g><svg viewBox="0 0 118.30212020427322 180" height="180" width="118.30212020427322"><g><svg viewBox="0 0 192 292.1333949072508" height="180" width="118.30212020427322"><g transform="matrix(1,0,0,1,0,115.74629138113855)"><svg viewBox="0 0 192 176.38710352611227" height="176.38710352611227" width="192"><g id="textblocktransform"><svg viewBox="0 0 192 176.38710352611227" height="176.38710352611227" width="192" id="textblock"><g><svg viewBox="0 0 192 132.50704225352112" height="132.50704225352112" width="192"><g transform="matrix(1,0,0,1,0,0)"><svg width="192" viewBox="4.1 -35 50.713888888888 35" height="132.50704225352112" data-palette-color="#f2cebe"><path d="M23.1-34.65Q23.35-35 23.7-35L23.7-35 26.3-35Q26.8-35 26.8-34.5L26.8-34.5 26.8-0.5Q26.8 0 26.3 0L26.3 0 23.75 0Q23.25 0 23.25-0.5L23.25-0.5 23.25-27.7Q23.25-27.85 23.15-27.9 23.05-27.95 23-27.8L23-27.8 16.35-16.25Q16.1-15.9 15.75-15.9L15.75-15.9 15.2-15.9Q14.85-15.9 14.6-16.25L14.6-16.25 7.9-27.75Q7.85-27.9 7.75-27.85 7.65-27.8 7.65-27.65L7.65-27.65 7.65-0.5Q7.65 0 7.15 0L7.15 0 4.6 0Q4.1 0 4.1-0.5L4.1-0.5 4.1-34.5Q4.1-35 4.6-35L4.6-35 7.2-35Q7.55-35 7.8-34.65L7.8-34.65 15.35-21.8Q15.4-21.75 15.5-21.75 15.6-21.75 15.65-21.8L15.65-21.8 23.1-34.65ZM42.35 0Q41.9 0 41.8-0.45L41.8-0.45 32.7-34.45 32.65-34.6Q32.65-35 33.15-35L33.15-35 35.85-35Q36.35-35 36.4-34.55L36.4-34.55 43.7-5.95Q43.75-5.85 43.8-5.85 43.85-5.85 43.9-5.95L43.9-5.95 51.2-34.55Q51.3-35 51.75-35L51.75-35 54.35-35Q54.6-35 54.72-34.85 54.85-34.7 54.8-34.45L54.8-34.45 45.7-0.45Q45.6 0 45.15 0L45.15 0 42.35 0Z" opacity="1" transform="matrix(1,0,0,1,0,0)" fill="#f2cebe" class="wordmark-text-0" data-fill-palette-color="primary" id="text-0"></path></svg></g></svg></g><g transform="matrix(1,0,0,1,0,151.84299988732394)"><svg viewBox="0 0 192 24.54410363878834" height="24.54410363878834" width="192"><g transform="matrix(1,0,0,1,0,0)"><svg width="192" viewBox="3.95 -32.9 262.42 33.55" height="24.54410363878834" data-palette-color="#f2cebe"><path d="M21.75-7.9L21.75-7.9Q21.4-7.65 20.83-7.45 20.25-7.25 19.55-7.25L19.55-7.25Q18.75-7.25 18.13-7.5 17.5-7.75 17.25-8.3L17.25-8.3Q14.6-13.9 12.63-18.55 10.65-23.2 9.45-26.25L9.45-26.25 9.25-26.25Q9.1-22.5 8.93-19.25 8.75-16 8.55-12.98 8.35-9.95 8.18-6.78 8-3.6 7.75 0L7.75 0Q7.45 0.1 6.98 0.2 6.5 0.3 5.95 0.3L5.95 0.3Q4.85 0.3 4.4-0.18 3.95-0.65 3.95-1.45L3.95-1.45Q3.95-2.05 4.08-4.23 4.2-6.4 4.38-9.55 4.55-12.7 4.8-16.28 5.05-19.85 5.33-23.33 5.6-26.8 5.85-29.6L5.85-29.6Q6.25-29.95 7-30.25 7.75-30.55 8.7-30.55L8.7-30.55Q9.85-30.55 10.65-30.1 11.45-29.65 11.9-28.7L11.9-28.7Q13.2-26.15 14.5-23.15 15.8-20.15 17.05-17.15 18.3-14.15 19.45-11.5L19.45-11.5 19.65-11.5Q21.85-16.8 24.03-21.7 26.2-26.6 27.7-30.05L27.7-30.05Q28.15-30.3 28.85-30.43 29.55-30.55 30.15-30.55L30.15-30.55Q31.3-30.55 31.98-30.18 32.65-29.8 32.85-28.95L32.85-28.95Q33.05-28.1 33.3-26.05 33.55-24 33.8-21.23 34.05-18.45 34.27-15.4 34.5-12.35 34.7-9.4 34.9-6.45 35.08-4.08 35.25-1.7 35.3-0.3L35.3-0.3Q34.85 0 34.35 0.15 33.85 0.3 33.2 0.3L33.2 0.3Q32.45 0.3 31.88-0.08 31.3-0.45 31.2-1.45L31.2-1.45Q30.9-6.3 30.63-11.03 30.35-15.75 30.15-19.7 29.95-23.65 29.8-26.15L29.8-26.15 29.6-26.15Q28.5-23.4 26.6-19.07 24.7-14.75 21.75-7.9ZM64.2-11.55L64.2-11.55Q64.2-7.85 62.8-5.1 61.4-2.35 58.85-0.85 56.3 0.65 52.85 0.65L52.85 0.65Q49.4 0.65 46.82-0.85 44.25-2.35 42.85-5.1 41.45-7.85 41.45-11.55L41.45-11.55Q41.45-15.3 42.87-18.03 44.3-20.75 46.87-22.25 49.45-23.75 52.85-23.75L52.85-23.75Q56.25-23.75 58.8-22.25 61.35-20.75 62.77-18.03 64.2-15.3 64.2-11.55ZM52.85-20.45L52.85-20.45Q49.5-20.45 47.52-18.07 45.55-15.7 45.55-11.55L45.55-11.55Q45.55-7.35 47.47-5 49.4-2.65 52.85-2.65L52.85-2.65Q56.25-2.65 58.17-5.03 60.1-7.4 60.1-11.55L60.1-11.55Q60.1-15.7 58.17-18.07 56.25-20.45 52.85-20.45ZM87.7-23.55L87.7-23.55Q88.55-23.55 89.07-23.1 89.6-22.65 89.6-21.8L89.6-21.8Q89.6-21.15 89.05-19.35 88.5-17.55 87.6-15.05 86.7-12.55 85.62-9.83 84.55-7.1 83.42-4.58 82.3-2.05 81.35-0.2L81.35-0.2Q81.1 0 80.47 0.15 79.85 0.3 79.15 0.3L79.15 0.3Q78.3 0.3 77.65 0.03 77-0.25 76.75-0.75L76.75-0.75Q76.2-1.75 75.32-3.68 74.45-5.6 73.45-8.05 72.45-10.5 71.42-13.13 70.4-15.75 69.55-18.18 68.7-20.6 68.15-22.45L68.15-22.45Q68.5-22.95 69.1-23.25 69.7-23.55 70.3-23.55L70.3-23.55Q71.2-23.55 71.7-23.1 72.2-22.65 72.55-21.6L72.55-21.6 75.65-12.65Q76.05-11.5 76.7-9.8 77.35-8.1 78-6.4 78.65-4.7 79.05-3.55L79.05-3.55 79.25-3.55Q81.25-8.6 83-13.53 84.75-18.45 86-23.15L86-23.15Q86.65-23.55 87.7-23.55ZM94.79-30.4L94.79-30.4Q94.79-31.45 95.54-32.18 96.29-32.9 97.39-32.9L97.39-32.9Q98.54-32.9 99.24-32.18 99.94-31.45 99.94-30.4L99.94-30.4Q99.94-29.35 99.24-28.63 98.54-27.9 97.39-27.9L97.39-27.9Q96.29-27.9 95.54-28.63 94.79-29.35 94.79-30.4ZM95.39-1.55L95.39-13.2 99.39-13.2 99.39-0.1Q99.14 0 98.64 0.13 98.14 0.25 97.54 0.25L97.54 0.25Q96.49 0.25 95.94-0.18 95.39-0.6 95.39-1.55L95.39-1.55ZM99.39-21.5L99.39-11.25 95.39-11.25 95.39-23Q95.64-23.1 96.17-23.23 96.69-23.35 97.29-23.35L97.29-23.35Q98.34-23.35 98.87-22.93 99.39-22.5 99.39-21.5L99.39-21.5ZM125.44-11.35L108.64-9 108.44-12.15 123.54-14.2Q123.34-16.95 121.64-18.73 119.94-20.5 116.94-20.5L116.94-20.5Q113.84-20.5 111.82-18.28 109.79-16.05 109.79-11.9L109.79-11.9 109.79-10.8Q110.14-6.8 112.42-4.73 114.69-2.65 118.64-2.65L118.64-2.65Q120.74-2.65 122.44-3.35 124.14-4.05 125.14-4.85L125.14-4.85Q125.69-4.5 126.02-4.03 126.34-3.55 126.34-2.95L126.34-2.95Q126.34-2 125.27-1.18 124.19-0.35 122.42 0.15 120.64 0.65 118.44 0.65L118.44 0.65Q114.59 0.65 111.77-0.75 108.94-2.15 107.42-4.93 105.89-7.7 105.89-11.7L105.89-11.7Q105.89-14.55 106.72-16.78 107.54-19 109.02-20.55 110.49-22.1 112.54-22.93 114.59-23.75 116.99-23.75L116.99-23.75Q120.04-23.75 122.37-22.45 124.69-21.15 126.02-18.82 127.34-16.5 127.34-13.5L127.34-13.5Q127.34-12.4 126.84-11.93 126.34-11.45 125.44-11.35L125.44-11.35ZM156.74-0.4L156.74-0.4Q156.49-0.2 155.79 0.03 155.09 0.25 154.24 0.25L154.24 0.25Q153.29 0.25 152.54-0.03 151.79-0.3 151.54-0.85L151.54-0.85Q150.74-2.4 149.66-5 148.59-7.6 147.36-10.83 146.14-14.05 144.94-17.43 143.74-20.8 142.71-23.98 141.69-27.15 140.94-29.6L140.94-29.6Q141.24-30 141.84-30.35 142.44-30.7 143.19-30.7L143.19-30.7Q144.14-30.7 144.59-30.25 145.04-29.8 145.34-28.9L145.34-28.9Q147.54-22.4 149.61-16.25 151.69-10.1 154.14-3.85L154.14-3.85 154.34-3.85Q155.79-7.65 157.36-12.08 158.94-16.5 160.41-21.2 161.89-25.9 163.04-30.35L163.04-30.35Q163.39-30.55 163.81-30.63 164.24-30.7 164.74-30.7L164.74-30.7Q165.64-30.7 166.19-30.25 166.74-29.8 166.74-28.9L166.74-28.9Q166.74-28.15 166.19-26.1 165.64-24.05 164.71-21.25 163.79-18.45 162.69-15.35 161.59-12.25 160.44-9.28 159.29-6.3 158.34-3.98 157.39-1.65 156.74-0.4ZM171.93-30.4L171.93-30.4Q171.93-31.45 172.68-32.18 173.43-32.9 174.53-32.9L174.53-32.9Q175.68-32.9 176.38-32.18 177.08-31.45 177.08-30.4L177.08-30.4Q177.08-29.35 176.38-28.63 175.68-27.9 174.53-27.9L174.53-27.9Q173.43-27.9 172.68-28.63 171.93-29.35 171.93-30.4ZM172.53-1.55L172.53-13.2 176.53-13.2 176.53-0.1Q176.28 0 175.78 0.13 175.28 0.25 174.68 0.25L174.68 0.25Q173.63 0.25 173.08-0.18 172.53-0.6 172.53-1.55L172.53-1.55ZM176.53-21.5L176.53-11.25 172.53-11.25 172.53-23Q172.78-23.1 173.31-23.23 173.83-23.35 174.43-23.35L174.43-23.35Q175.48-23.35 176.01-22.93 176.53-22.5 176.53-21.5L176.53-21.5ZM200.63-6.15L200.63-6.15Q200.63-2.95 198.28-1.15 195.93 0.65 191.48 0.65L191.48 0.65Q187.68 0.65 185.28-0.53 182.88-1.7 182.88-3.1L182.88-3.1Q182.88-3.7 183.21-4.28 183.53-4.85 184.18-5.2L184.18-5.2Q185.53-4.25 187.33-3.45 189.13-2.65 191.43-2.65L191.43-2.65Q196.63-2.65 196.63-6.15L196.63-6.15Q196.63-7.6 195.76-8.53 194.88-9.45 193.18-9.85L193.18-9.85 189.03-10.95Q185.98-11.7 184.58-13.28 183.18-14.85 183.18-17.2L183.18-17.2Q183.18-19.85 185.33-21.8 187.48-23.75 191.88-23.75L191.88-23.75Q194.23-23.75 195.98-23.28 197.73-22.8 198.71-22.03 199.68-21.25 199.68-20.35L199.68-20.35Q199.68-19.7 199.36-19.2 199.03-18.7 198.48-18.45L198.48-18.45Q197.88-18.85 196.96-19.33 196.03-19.8 194.78-20.13 193.53-20.45 192.03-20.45L192.03-20.45Q189.83-20.45 188.48-19.6 187.13-18.75 187.13-17.2L187.13-17.2Q187.13-16.1 187.91-15.28 188.68-14.45 190.38-14.05L190.38-14.05 193.83-13.2Q197.23-12.4 198.93-10.68 200.63-8.95 200.63-6.15ZM206.33-30.4L206.33-30.4Q206.33-31.45 207.08-32.18 207.83-32.9 208.93-32.9L208.93-32.9Q210.08-32.9 210.78-32.18 211.48-31.45 211.48-30.4L211.48-30.4Q211.48-29.35 210.78-28.63 210.08-27.9 208.93-27.9L208.93-27.9Q207.83-27.9 207.08-28.63 206.33-29.35 206.33-30.4ZM206.93-1.55L206.93-13.2 210.93-13.2 210.93-0.1Q210.68 0 210.18 0.13 209.68 0.25 209.08 0.25L209.08 0.25Q208.03 0.25 207.48-0.18 206.93-0.6 206.93-1.55L206.93-1.55ZM210.93-21.5L210.93-11.25 206.93-11.25 206.93-23Q207.18-23.1 207.7-23.23 208.23-23.35 208.83-23.35L208.83-23.35Q209.88-23.35 210.4-22.93 210.93-22.5 210.93-21.5L210.93-21.5ZM240.18-11.55L240.18-11.55Q240.18-7.85 238.78-5.1 237.38-2.35 234.83-0.85 232.28 0.65 228.83 0.65L228.83 0.65Q225.38 0.65 222.8-0.85 220.23-2.35 218.83-5.1 217.43-7.85 217.43-11.55L217.43-11.55Q217.43-15.3 218.85-18.03 220.28-20.75 222.85-22.25 225.43-23.75 228.83-23.75L228.83-23.75Q232.23-23.75 234.78-22.25 237.33-20.75 238.75-18.03 240.18-15.3 240.18-11.55ZM228.83-20.45L228.83-20.45Q225.48-20.45 223.5-18.07 221.53-15.7 221.53-11.55L221.53-11.55Q221.53-7.35 223.45-5 225.38-2.65 228.83-2.65L228.83-2.65Q232.23-2.65 234.15-5.03 236.08-7.4 236.08-11.55L236.08-11.55Q236.08-15.7 234.15-18.07 232.23-20.45 228.83-20.45ZM266.37-15.25L266.37-15.25 266.37-10.15 262.37-10.15 262.37-15.05Q262.37-17.85 260.8-19.15 259.22-20.45 256.57-20.45L256.57-20.45Q254.57-20.45 253.02-19.95 251.47-19.45 250.37-18.8L250.37-18.8 250.37-10.15 246.37-10.15 246.37-18.6Q246.37-19.65 246.8-20.33 247.22-21 248.27-21.65L248.27-21.65Q249.57-22.4 251.72-23.08 253.87-23.75 256.57-23.75L256.57-23.75Q261.12-23.75 263.75-21.68 266.37-19.6 266.37-15.25ZM246.37-1.55L246.37-12.9 250.37-12.9 250.37-0.1Q250.12 0 249.62 0.13 249.12 0.25 248.52 0.25L248.52 0.25Q247.47 0.25 246.92-0.18 246.37-0.6 246.37-1.55L246.37-1.55ZM262.37-1.55L262.37-12.9 266.37-12.9 266.37-0.1Q266.12 0 265.6 0.13 265.07 0.25 264.52 0.25L264.52 0.25Q263.42 0.25 262.9-0.18 262.37-0.6 262.37-1.55L262.37-1.55Z" opacity="1" transform="matrix(1,0,0,1,0,0)" fill="#f2cebe" class="slogan-text-1" data-fill-palette-color="secondary" id="text-1"></path></svg></g></svg></g></svg></g></svg></g><g transform="matrix(1,0,0,1,36.672,0)"><svg viewBox="0 0 118.656 96.41033374733573" height="96.41033374733573" width="118.656"><g><svg xmlns="http://www.w3.org/2000/svg" xmlns:xlink="http://www.w3.org/1999/xlink" version="1.1" x="0" y="0" viewBox="-5.841175562886296e-8 0 64.00000011682351 52.00125885831715" style="enable-background:new 0 0 64 52;" xml:space="preserve" id="icon-0" width="118.656" height="96.41033374733573" class="icon-icon-0" data-fill-palette-color="accent"><g fill="#eae4d6" data-fill-palette-color="accent"><path d="M63.388 50.078L44.388 42.078A1 1 0 0 0 44 42H43V44H43.798L62 51.664V52H64V51A1 1 0 0 0 63.388 50.078" fill="#eae4d6" data-fill-palette-color="accent"></path><path d="M19.612 42.078L0.612 50.078A1 1 0 0 0 0 51V52H2V51.664L20.202 44H21V42H20A1 1 0 0 0 19.612 42.078" fill="#eae4d6" data-fill-palette-color="accent"></path><path d="M63.755 21.655A1 1 0 0 0 63.755 20.344C63.176 19.677 49.377 4 32 4S0.824 19.677 0.245 20.345A1 1 0 0 0 0.245 21.656C0.719 22.202 10.075 32.825 23 36.643V45A1 1 0 0 0 23.4 45.8L31.4 51.8A0.995 0.995 0 0 0 32.6 51.8L40.6 45.8A1 1 0 0 0 41 45V36.643C53.925 32.825 63.281 22.202 63.755 21.655M2.36 21C5.18 18.031 17.503 6 32 6S58.82 18.031 61.64 21C58.82 23.969 46.497 36 32 36S5.18 23.969 2.36 21M39 44.5L32 49.75 25 44.5V37.168C27.248 37.69 29.588 38 32 38S36.752 37.69 39 37.168z" fill="#eae4d6" data-fill-palette-color="accent"></path><path d="M45 21C45 13.832 39.168 8 32 8S19 13.832 19 21 24.832 34 32 34 45 28.168 45 21M32 10C37.169 10 41.504 13.588 42.677 18.4 40.418 16.535 36.523 14 32 14S23.582 16.535 21.323 18.4C22.496 13.588 26.831 10 32 10M42.591 21C41.012 22.499 36.81 26 32 26S22.988 22.499 21.409 21C22.988 19.501 27.19 16 32 16S41.012 19.501 42.591 21M21.323 23.6C23.582 25.465 27.477 28 32 28S40.418 25.465 42.677 23.6C41.504 28.412 37.169 32 32 32S22.496 28.412 21.323 23.6" fill="#eae4d6" data-fill-palette-color="accent"></path><path d="M29 21C29 22.654 30.346 24 32 24S35 22.654 35 21 33.654 18 32 18 29 19.346 29 21M33 21C33 21.551 32.551 22 32 22S31 21.551 31 21 31.449 20 32 20 33 20.449 33 21" fill="#eae4d6" data-fill-palette-color="accent"></path><path d="M1 12H5A1 1 0 0 0 6 11V6H11A1 1 0 0 0 12 5V1A1 1 0 0 0 11 0H5C2.243 0 0 2.243 0 5V11A1 1 0 0 0 1 12M2 5C2 3.346 3.346 2 5 2H10V4H5A1 1 0 0 0 4 5V10H2z" fill="#eae4d6" data-fill-palette-color="accent"></path><path d="M63 29H59A1 1 0 0 0 58 30V35H53A1 1 0 0 0 52 36V40A1 1 0 0 0 53 41H59C61.757 41 64 38.757 64 36V30A1 1 0 0 0 63 29M62 36C62 37.654 60.654 39 59 39H54V37H59A1 1 0 0 0 60 36V31H62z" fill="#eae4d6" data-fill-palette-color="accent"></path></g></svg></g></svg></g><g></g></svg></g></svg></g></svg></g></svg></g><defs></defs></svg><rect width="320" height="360" fill="none" stroke="none" visibility="hidden"></rect></g></svg></g></svg>